<?xml version="1.0" encoding="UTF-8" standalone="no"?><!DOCTYPE svg PUBLIC "-//W3C//DTD SVG 1.1//EN" "http://www.w3.org/Graphics/SVG/1.1/DTD/svg11.dtd"><svg width="100%" height="100%" viewBox="0 0 1642 2519" version="1.1" xmlns="http://www.w3.org/2000/svg" xmlns:xlink="http://www.w3.org/1999/xlink" xml:space="preserve" xmlns:serif="http://www.serif.com/" style="fill-rule:evenodd;clip-rule:evenodd;stroke-linecap:round;stroke-linejoin:round;stroke-miterlimit:1.5;"><path d="M1513.24,1287.63l8.526,1.463c-0,-0 -8.719,-0.78 -8.526,-1.463c-0,-0 16.345,2.741 16.274,2.979c254.826,23.218 -10.78,643.411 -110.066,442.564c-0,-0 -71.022,190.302 -107.363,287.58c-13.855,37.125 -35.759,70.724 -64.134,98.381c-366.352,357.541 -608.021,537.022 -848.423,273.454c-67.304,-73.786 -193.857,-224.999 -263.274,-372.662c-13.703,-30.405 -22.753,-62.694 -26.851,-95.789c-18.249,-146.608 -37.869,-294.124 -52.339,-440.577c-12.102,-122.562 -19.263,-243.972 -28.668,-366.444c-0.495,-6.425 -0.992,-12.856 -1.501,-19.287c-1.042,-17.611 19.665,-34.264 19.204,-50.78c-4.546,-161.627 -0.881,-279.106 91.421,-509.774c830.461,-227.299 1309.61,-94.212 1375.72,750.356l-0.003,0.001l-0,-0.002Z" style="fill:#e9c6af;stroke:#000;stroke-width:8.78px;"/><g><path id="mouth" d="M291.813,1845.61c37.022,-30.957 73.653,-66.319 117.186,-69.484c209.411,-15.221 428.95,25.954 523.25,70.485c-190.333,276.793 -400.567,315.261 -640.436,-1.001l0,0Z" style="fill:#513132;stroke:#000;stroke-width:8.78px;"/><path id="teeth-top" d="M888.315,1890.38c-178.033,2.287 -352.516,1.035 -517.597,-9.583c-56.052,-45.694 -26.239,-52.681 8.867,-61.399c14.003,-7.508 34.32,-11.023 69.434,-22.883c6.541,-2.178 13.399,-3.258 20.292,-3.192c157.569,1.58 311.573,20.876 462.939,53.26c-25.994,40.965 -37.411,48.054 -43.935,43.797l-0,0Z" style="fill:#fff;stroke:#000;stroke-width:8.78px;"/><path id="teeth-bottom" d="M495.462,2032.2c76.551,10.509 171.013,9.51 240.249,0.376c-62.436,40.696 -154.407,52.183 -240.249,-0.376Z" style="fill:#fff;stroke:#000;stroke-width:9.35px;stroke-linejoin:bevel;"/></g><g><path id="cheek-right-small" d="M1059.39,1829.62c5.717,78.504 -4.862,134.043 -27.205,200.405" style="fill:none;stroke:#000;stroke-width:8px;"/><path id="cheek-right" d="M800.868,1503.07c241.084,225.648 241.399,395.105 128.854,604.087" style="fill:none;stroke:#000;stroke-width:8px;"/><path id="cheek-left" d="M353.375,1498.76c-143.401,198.03 -148.141,375.418 -29.401,570.572" style="fill:none;stroke:#000;stroke-width:8px;"/></g><g><path id="eyebrow-right" d="M805.638,1026.75c-0,0 24.183,-21.006 26.851,-20.816c8.956,0.638 16.653,5.885 29.884,3.336c27.573,-5.309 21.178,-13.545 56.546,-15.121c12.046,-0.534 24.677,15.248 27.675,15.252c10.912,0.017 10.189,-4.978 28.917,-0.262c21.606,5.436 42.803,17.011 62.535,26.913c13.392,6.724 42.284,5.093 51.662,14.5c2.51,2.518 23.003,27.519 16.791,33.715c-3.573,3.559 -76.438,-5.488 -83.409,-12.479c-6.04,-6.059 -8.259,-10.11 -17.855,-14.929c-12,-6.023 -42.89,-0.065 -56.615,-0.088c-25.787,-0.039 -155.897,13.73 -166.872,2.72c-6.299,-6.322 23.885,-29.568 23.89,-32.741l0,0l-0,0Z" style="fill:#512b18;stroke:#000;stroke-width:13.37px;"/><path id="eyebrow-left" d="M352.919,1035.63c-0,-0 -24.356,-20.802 -27.024,-20.59c-8.949,0.714 -16.601,6.024 -29.856,3.588c-27.614,-5.077 -21.289,-13.367 -56.672,-14.645c-12.05,-0.435 -24.544,15.455 -27.545,15.485c-10.91,0.109 -10.23,-4.892 -28.92,-0.023c-21.558,5.62 -42.656,17.371 -62.303,27.442c-13.334,6.837 -41.416,-14.937 -50.713,-5.452c-2.489,2.539 -20.837,26.782 -14.571,32.925c3.601,3.529 73.628,15.184 80.538,8.135c5.991,-6.111 8.176,-10.181 17.73,-15.076c11.948,-6.125 42.888,-0.428 56.614,-0.565c25.784,-0.257 156.004,12.416 166.887,1.314c6.247,-6.373 -24.133,-29.366 -24.165,-32.538Z" style="fill:#512b18;stroke:#000;stroke-width:13.37px;"/></g><path d="M691.87,1406.54c3.617,5.239 14.88,19.023 19.609,23.288c25.741,23.204 22.53,40.715 23.396,66.123c0.99,34.864 -8.899,64.292 -43.656,67.131c-47.534,3.757 -87.037,13.258 -123.742,30.596c-45.891,21.679 -77.775,-7.767 -143.508,-24.436c-26.041,-9.998 -42.534,-36.399 -39.944,-64.176c3.068,-35.394 11.484,-68.346 47.273,-104.065c5.935,-5.908 10.846,-12.758 14.54,-20.277c52.323,-105.705 73.35,-169.747 79.665,-217.079" style="fill:none;stroke:#000;stroke-width:8px;"/><path d="M1329.96,1249.66c0.691,-6.429 5.884,-28.055 5.884,-28.055c-0,0 28.421,-136.478 29.919,-165.832c0.499,-9.662 -0.379,-19.345 -2.602,-28.759c-11.453,-49.784 -19.024,-93.841 -69.424,-122.606c-27.769,-16.089 -45.409,-45.235 -46.781,-77.299c-5.464,-118.8 -102.501,-188.537 -181.5,-280.939c-10.468,-12.48 -37.099,-21.843 -52.901,-25.792c-146.389,-36.672 -310.447,-61.617 -560.135,-14.678c-2.325,0.44 -4.64,0.942 -6.934,1.506c-124.352,30.408 -255.626,55.929 -318.878,30.785c-6.849,61.481 -20.896,114.265 -50.884,175.978l15.342,-210.082l0.001,-0c-7.993,-11.51 -8.744,-26.21 -0.335,-44.499c11.228,-24.429 -23.965,-60.451 -9.473,-70.095c19.99,-13.306 105.1,-14.375 113.605,-45.001l-2.179,-2.033c1.569,-19.606 33.789,-12.85 25.968,-35.353c-4.408,-12.683 -206.327,-125.509 -211.944,-138.263c-24.29,-55.128 149.485,-28.406 166.155,-54.298c20.945,-32.534 183.46,33.831 219.49,15.357c19.159,-9.822 -119.691,-78.795 -96.608,-84.965c29.028,-7.758 193.132,59.712 227.934,57.335c79.118,-5.401 -202.396,-114.198 -97.46,-95.538c44.739,7.957 73.99,18.123 202.295,50.625c44.578,11.291 -13.069,-57.709 34.653,-44.215c61.264,17.326 409.809,140.614 475.384,161.954c172.607,100.685 300.064,230.378 373.862,389.895c78.079,168.76 110.09,231.176 57.982,467.657l-57.982,255.273c0.173,0.174 -77.377,-12.554 -94.937,50.194c-0.591,1.95 -2.382,3.291 -4.42,3.314l-16.1,-0c-23.624,0.235 -30.14,-9.64 -46.014,-27.135c-15.875,-17.499 -23.511,-40.946 -20.983,-64.436Z" style="fill:#512b18;stroke:#000;stroke-width:8.8px;"/><g><path id="glasses" d="M1543.83,1223.68l-352.392,-145.634c-202.811,-53.727 -362.662,-67.284 -526.621,-21.066c-52.601,3.894 -113.823,23.141 -166.68,1.663c-155.122,-22.253 -306.668,-41.157 -473.897,-12.819c-7.093,119.524 -0.277,233.325 43.161,332.05c7.854,17.508 23.187,30.538 41.733,35.461c234.252,62.5 350.186,-41.669 424.968,-267.316l96.501,-0.963c9.496,120.475 32.076,206.693 90.263,253.53c28.427,22.884 75.429,33.742 114.079,39.681c61.414,9.441 135.153,-2.248 219.369,-34.235c87.137,-52.401 88.405,-118.137 111.858,-220.453l237.56,67.82c166.096,47.198 196.954,6.187 140.098,-27.718l0,-0.001Z" style="fill:#4d4d4d;"/><path d="M676.935,1169.34c7.751,98.334 26.181,168.705 73.676,206.938c23.203,18.678 61.566,27.539 93.114,32.39c50.126,7.705 110.316,-1.836 179.057,-27.945c71.123,-42.769 72.155,-96.429 91.297,-179.941c-0,-0 7.399,-30.898 13.334,-55.684c4.08,-17.034 -6.364,-34.166 -23.376,-38.341c-151.217,-37.159 -273.721,-44.673 -399.176,-9.308c-18.006,15.438 -29.322,37.433 -27.926,71.891l-0,0Z" style="fill:url(#_Radial1);stroke:#000;stroke-width:8.78px;"/><path d="M454.397,1098.99c-123.075,-31.072 -242.512,-50.648 -369.294,-20.247c-12.252,3.012 -21.055,13.744 -21.608,26.347c-3.754,87.741 2.92,171.221 33.628,244.804c7.89,18.571 24.033,32.371 43.61,37.27c187.581,47.448 281.126,-38.092 341.717,-220.914c4.031,-47.887 -2.479,-62.709 -28.052,-67.259l-0.001,-0.001Z" style="fill:url(#_Radial2);stroke:#000;stroke-width:8.78px;"/><path id="glasses1" serif:id="glasses" d="M1543.83,1223.68l-352.392,-145.634c-202.811,-53.727 -362.662,-67.284 -526.621,-21.066c-52.601,3.894 -113.823,23.141 -166.68,1.663c-155.122,-22.253 -306.668,-41.157 -473.897,-12.819c-7.093,119.524 -0.277,233.325 43.161,332.05c7.854,17.508 23.187,30.538 41.733,35.461c234.252,62.5 350.186,-41.669 424.968,-267.316l96.501,-0.963c9.496,120.475 32.076,206.693 90.263,253.53c28.427,22.884 75.429,33.742 114.079,39.681c61.414,9.441 135.153,-2.248 219.369,-34.235c87.137,-52.401 88.405,-118.137 111.858,-220.453l237.56,67.82c166.096,47.198 196.954,6.187 140.098,-27.718l0,-0.001Z" style="fill:none;stroke:#000;stroke-width:8.78px;"/></g><path d="M1147.99,374.56c-136.702,-173.375 -276.763,-293.855 -513.347,-314.117" style="fill:none;stroke:#000;stroke-width:8px;"/><path d="M677.185,325.101c-23.376,-40.025 -57.936,-74.946 -103.11,-105.022c-48.371,-32.204 -137.469,-64.27 -209.482,-85.684" style="fill:none;stroke:#000;stroke-width:8px;"/><path d="M509.664,104.445c168.914,-12.089 332.817,119.25 406.814,206.866" style="fill:none;stroke:#000;stroke-width:8px;"/><path d="M218.07,304.028c82.622,24.973 138.355,63.726 169.319,115.175" style="fill:none;stroke:#000;stroke-width:8px;"/><defs><radialGradient id="_Radial1" cx="0" cy="0" r="1" gradientUnits="userSpaceOnUse" gradientTransform="matrix(458.337,-4.57293,3.3602,336.787,641.813,1173.32)"><stop offset="0" style="stop-color:#fff;stop-opacity:0.47"/><stop offset="0.03" style="stop-color:#a3a3a3;stop-opacity:0.66"/><stop offset="0.07" style="stop-color:#565656;stop-opacity:0.82"/><stop offset="0.2" style="stop-color:#3a3a3a;stop-opacity:0.88"/><stop offset="0.58" style="stop-color:#0e0e0e;stop-opacity:0.97"/><stop offset="1" style="stop-color:#000;stop-opacity:1"/></radialGradient><radialGradient id="_Radial2" cx="0" cy="0" r="1" gradientUnits="userSpaceOnUse" gradientTransform="matrix(421.085,-4.20126,3.35905,336.672,96.6837,1126.12)"><stop offset="0" style="stop-color:#373737;stop-opacity:0.89"/><stop offset="0.52" style="stop-color:#0f0f0f;stop-opacity:0.97"/><stop offset="1" style="stop-color:#000;stop-opacity:1"/></radialGradient></defs></svg>