<?xml version="1.0" encoding="UTF-8" standalone="no"?><!DOCTYPE svg PUBLIC "-//W3C//DTD SVG 1.1//EN" "http://www.w3.org/Graphics/SVG/1.1/DTD/svg11.dtd"><svg width="100%" height="100%" viewBox="0 0 392 186" version="1.1" xmlns="http://www.w3.org/2000/svg" xmlns:xlink="http://www.w3.org/1999/xlink" xml:space="preserve" xmlns:serif="http://www.serif.com/" style="fill-rule:evenodd;clip-rule:evenodd;stroke-linecap:round;stroke-linejoin:round;stroke-miterlimit:1.5;"><g><path d="M390.318,110.941c0,40.268 -87.112,72.961 -194.409,72.961c-107.297,-0 -194.409,-32.693 -194.409,-72.961c0,-23.797 30.923,-46.099 82.854,-59.754l-24.531,-49.687l85.714,38.972c16.428,-1.654 33.363,-2.492 50.372,-2.492c107.297,0 194.409,32.693 194.409,72.961Z" style="fill:#fff;stroke:#000;stroke-width:3px;"/><path d="M123.896,132.045c-0,0.492 -0.106,0.796 -0.316,0.914c-0.094,0.07 -0.422,0.129 -0.985,0.175c-1.43,0.141 -3.445,0.211 -6.047,0.211c-3.679,0 -5.841,-0.07 -6.486,-0.211c-0.645,-0.14 -0.967,-0.457 -0.967,-0.949c0,-1.851 0.088,-4.635 0.264,-8.349c0.176,-3.715 0.264,-6.498 0.264,-8.35c-0,-0.914 -0.258,-1.441 -0.774,-1.582c-0.797,-0.188 -3.633,-0.281 -8.508,-0.281c-4.898,-0 -7.758,0.093 -8.578,0.281c-0.515,0.117 -0.773,0.644 -0.773,1.582c-0,1.828 0.058,4.564 0.175,8.209c0.118,3.645 0.176,6.381 0.176,8.209c0,0.703 -0.316,1.113 -0.949,1.23c-0.75,0.141 -2.953,0.211 -6.609,0.211c-3.164,0 -5.18,-0.07 -6.047,-0.211c-0.68,-0.117 -1.02,-0.48 -1.02,-1.089c0,-2.532 0.123,-6.352 0.369,-11.461c0.247,-5.11 0.37,-8.942 0.37,-11.496c-0,-2.719 -0.118,-6.803 -0.352,-12.252c-0.234,-5.45 -0.352,-9.534 -0.352,-12.252c0,-0.516 0.247,-0.774 0.739,-0.774c0.726,0 1.822,0.035 3.287,0.106c1.465,0.07 2.56,0.105 3.287,0.105c0.75,0 1.881,-0.035 3.393,-0.105c1.511,-0.071 2.642,-0.106 3.392,-0.106c0.399,0 0.598,0.211 0.598,0.633c-0,1.758 -0.129,4.389 -0.387,7.893c-0.258,3.504 -0.387,6.134 -0.387,7.892c0,0.82 0.223,1.301 0.668,1.442c0.61,0.187 3.61,0.281 9,0.281c5.016,-0 7.922,-0.094 8.719,-0.281c0.563,-0.141 0.844,-0.622 0.844,-1.442c-0,-1.687 -0.082,-4.236 -0.246,-7.646c-0.164,-3.41 -0.246,-5.971 -0.246,-7.682c-0,-0.727 0.293,-1.09 0.878,-1.09c0.68,0 1.717,0.035 3.112,0.106c1.394,0.07 2.443,0.105 3.146,0.105c0.68,0 1.717,-0.035 3.112,-0.105c1.394,-0.071 2.443,-0.106 3.146,-0.106c0.68,0 1.02,0.281 1.02,0.844c-0,2.695 -0.112,6.762 -0.334,12.199c-0.223,5.438 -0.334,9.516 -0.334,12.235c-0,2.554 0.123,6.386 0.369,11.496c0.246,5.109 0.369,8.929 0.369,11.461Z" style="fill-rule:nonzero;"/><path d="M166.365,122.201c-0,1.008 -0.2,2.859 -0.598,5.555c-0.422,2.929 -0.797,4.675 -1.125,5.238c-0.281,0.445 -0.668,0.668 -1.16,0.668c-0.211,-0 -0.563,-0.035 -1.055,-0.106c-1.711,-0.234 -6.703,-0.351 -14.976,-0.351c-1.805,-0 -4.489,-0.012 -8.051,-0.035c-3.563,-0.024 -6.235,-0.036 -8.016,-0.036c-0.773,0 -1.16,-0.339 -1.16,-1.019c0,-2.625 0.147,-6.568 0.44,-11.83c0.293,-5.262 0.439,-9.205 0.439,-11.83c-0,-2.672 -0.141,-7.653 -0.422,-14.942c-0.07,-1.875 -0.199,-4.675 -0.387,-8.402l-0.035,-0.492c-0.047,-0.539 0.246,-0.809 0.879,-0.809c1.735,0 4.342,0.047 7.822,0.141c3.481,0.094 6.088,0.14 7.823,0.14c1.711,0 4.289,-0.046 7.734,-0.14c3.445,-0.094 6.023,-0.141 7.734,-0.141c1.219,0 1.922,0.457 2.11,1.371c0.117,0.539 0.299,2.174 0.545,4.905c0.246,2.73 0.369,4.388 0.369,4.974c-0,0.492 -0.235,0.738 -0.703,0.738c-0.141,0 -0.387,-0.011 -0.739,-0.035c-6.234,-0.515 -11.835,-0.773 -16.804,-0.773c-1.242,-0 -2.004,0.293 -2.285,0.879c-0.118,0.281 -0.176,1.183 -0.176,2.707c-0,1.594 0.234,2.648 0.703,3.164c0.398,0.445 1.16,0.668 2.285,0.668c0.234,-0 0.692,-0.018 1.371,-0.053c0.68,-0.035 1.242,-0.053 1.688,-0.053c2.953,0 5.941,-0.082 8.965,-0.246c0.257,-0.023 0.902,-0.082 1.933,-0.175c0.797,-0.094 1.43,-0.141 1.899,-0.141c0.562,-0 0.843,0.269 0.843,0.808c0,-0.492 -0.211,1.301 -0.632,5.379c-0.188,1.875 -0.282,3.75 -0.282,5.625c0,0.469 -0.34,0.704 -1.019,0.704c-0,-0 -1.055,-0.118 -3.164,-0.352c-1.336,-0.141 -4.383,-0.211 -9.141,-0.211l-3.727,0c-0.96,0 -1.523,0.234 -1.687,0.703c-0.023,0.117 -0.035,0.844 -0.035,2.18c-0,1.781 0.117,2.93 0.351,3.445c0.399,0.891 1.899,1.418 4.5,1.582c-0.046,0 1.664,0 5.133,0c1.242,0 3.088,-0.111 5.537,-0.334c2.45,-0.222 4.284,-0.334 5.502,-0.334c0.516,0 0.774,0.422 0.774,1.266Z" style="fill-rule:nonzero;"/><path d="M203.349,133.732c-2.016,0 -4.641,-0.047 -7.875,-0.141c-4.219,-0.093 -6.844,-0.152 -7.875,-0.175l-10.512,-0.141c-1.054,0.023 -2.566,-0.023 -4.535,-0.141c-0.679,-0.117 -1.019,-0.48 -1.019,-1.089c-0,-2.555 0.041,-6.381 0.123,-11.479c0.082,-5.098 0.123,-8.924 0.123,-11.478c-0,-2.719 -0.082,-6.791 -0.246,-12.217c-0.164,-5.426 -0.246,-9.498 -0.246,-12.217c-0,-0.516 0.351,-0.773 1.054,-0.773c0.703,-0 1.752,0.035 3.147,0.105c1.394,0.07 2.431,0.105 3.111,0.105c0.774,0 1.922,-0.041 3.445,-0.123c1.524,-0.082 2.672,-0.123 3.446,-0.123c0.351,0 0.515,0.223 0.492,0.668l-0.035,0.457c-0.282,4.407 -0.598,11.028 -0.949,19.864l-0.036,9.281c0,3 0.012,5.191 0.036,6.574c0.023,0.281 0.046,0.563 0.07,0.844c0.023,0.281 0.199,0.457 0.527,0.527l0.914,0c2.11,0 5.268,-0.111 9.475,-0.334c4.207,-0.222 7.365,-0.334 9.474,-0.334c0.633,0 0.95,0.27 0.95,0.809c-0,4.008 -0.293,7.465 -0.879,10.371c-0.117,0.609 -0.364,0.973 -0.739,1.09c-0.117,0.047 -0.597,0.07 -1.441,0.07Z" style="fill-rule:nonzero;"/><path d="M242.724,133.732c-2.016,0 -4.641,-0.047 -7.875,-0.141c-4.219,-0.093 -6.844,-0.152 -7.875,-0.175l-10.512,-0.141c-1.054,0.023 -2.566,-0.023 -4.535,-0.141c-0.679,-0.117 -1.019,-0.48 -1.019,-1.089c-0,-2.555 0.041,-6.381 0.123,-11.479c0.082,-5.098 0.123,-8.924 0.123,-11.478c-0,-2.719 -0.082,-6.791 -0.246,-12.217c-0.164,-5.426 -0.246,-9.498 -0.246,-12.217c-0,-0.516 0.351,-0.773 1.054,-0.773c0.703,-0 1.752,0.035 3.147,0.105c1.394,0.07 2.431,0.105 3.111,0.105c0.774,0 1.922,-0.041 3.445,-0.123c1.524,-0.082 2.672,-0.123 3.446,-0.123c0.351,0 0.515,0.223 0.492,0.668l-0.035,0.457c-0.282,4.407 -0.598,11.028 -0.949,19.864l-0.036,9.281c0,3 0.012,5.191 0.036,6.574c0.023,0.281 0.046,0.563 0.07,0.844c0.023,0.281 0.199,0.457 0.527,0.527l0.914,0c2.11,0 5.268,-0.111 9.475,-0.334c4.207,-0.222 7.365,-0.334 9.474,-0.334c0.633,0 0.95,0.27 0.95,0.809c-0,4.008 -0.293,7.465 -0.879,10.371c-0.117,0.609 -0.364,0.973 -0.739,1.09c-0.117,0.047 -0.597,0.07 -1.441,0.07Z" style="fill-rule:nonzero;"/><path d="M298.623,108.525c-0,7.313 -2.333,13.441 -6.997,18.387c-4.757,5.015 -10.781,7.523 -18.07,7.523c-7.242,0 -13.254,-2.531 -18.035,-7.594c-4.688,-4.945 -7.031,-11.05 -7.031,-18.316c-0,-7.289 2.343,-13.418 7.031,-18.387c4.781,-5.086 10.793,-7.629 18.035,-7.629c7.195,0 13.195,2.543 18,7.629c4.711,5.016 7.067,11.145 7.067,18.387Zm-13.325,-0.07c0,-3.516 -1.066,-6.504 -3.199,-8.965c-2.226,-2.578 -5.074,-3.867 -8.543,-3.867c-3.305,-0 -6.105,1.336 -8.402,4.008c-2.227,2.578 -3.34,5.542 -3.34,8.894c-0,3.586 1.043,6.574 3.129,8.965c2.203,2.508 5.074,3.762 8.613,3.762c3.305,-0 6.117,-1.325 8.438,-3.973c2.203,-2.531 3.304,-5.473 3.304,-8.824Z" style="fill-rule:nonzero;"/><path d="M317.677,92.318c0,4.266 -0.387,8.273 -1.16,12.023c-0.937,3.844 -1.863,7.676 -2.777,11.497c-0.211,0.867 -1.149,1.3 -2.813,1.3c-1.898,0 -2.953,-0.375 -3.164,-1.125c-2.203,-7.523 -3.305,-11.8 -3.305,-12.832c0,-0.961 0.047,-2.39 0.141,-4.289c0.094,-1.898 0.141,-3.328 0.141,-4.289c-0,-1.055 -0.035,-2.637 -0.106,-4.746c-0.07,-2.109 -0.105,-3.691 -0.105,-4.746c-0,-0.867 0.211,-1.301 0.633,-1.301c0.656,0 1.64,0.047 2.953,0.141c1.312,0.094 2.297,0.14 2.953,0.14c0.656,0 1.64,-0.046 2.953,-0.14c1.312,-0.094 2.297,-0.141 2.953,-0.141c0.469,0 0.703,2.836 0.703,8.508Zm0,34.84c0,1.969 -0.609,3.603 -1.828,4.904c-1.219,1.301 -2.812,1.951 -4.781,1.951c-1.992,0 -3.592,-0.644 -4.799,-1.933c-1.207,-1.289 -1.811,-2.93 -1.811,-4.922c0,-1.969 0.61,-3.586 1.829,-4.852c1.218,-1.265 2.812,-1.898 4.781,-1.898c1.945,-0 3.533,0.633 4.764,1.898c1.23,1.266 1.845,2.883 1.845,4.852Z" style="fill-rule:nonzero;"/></g></svg>