<?xml version="1.0" encoding="UTF-8" standalone="no"?><!DOCTYPE svg PUBLIC "-//W3C//DTD SVG 1.1//EN" "http://www.w3.org/Graphics/SVG/1.1/DTD/svg11.dtd"><svg width="100%" height="100%" viewBox="0 0 53425 53519" version="1.1" xmlns="http://www.w3.org/2000/svg" xmlns:xlink="http://www.w3.org/1999/xlink" xml:space="preserve" xmlns:serif="http://www.serif.com/" style="fill-rule:evenodd;clip-rule:evenodd;stroke-linecap:round;stroke-linejoin:round;stroke-miterlimit:1.5;"><g id="waves"><path d="M31192.9,614.812c14461,2388.96 24261.9,16069 21873,30530c-2388.96,14461 -16069,24261.9 -30530,21873c-14461,-2388.96 -24261.9,-16069 -21873,-30530c2388.96,-14461 16069,-24261.9 30530,-21873Z" style="fill:#86d0dd;"/><path d="M42217.7,6834.32c-2692.73,987.395 -6789.59,2351.66 -8300.12,3859.71c-6311.72,6301.38 -1909.17,15004.6 -1465.11,17240.7c726.453,3658.03 8836.03,12947.6 17176,9428.02c-6588.52,13360.2 -25879,9689.89 -33980.1,2765.2c-5265.95,-4501.25 -7295.76,-12183.5 -7109.97,-17299.6c22.554,-621.071 171.685,-1225.24 184.87,-1835.9c215.841,-9996.76 10240.9,-18906 19451.7,-18792.1c3939.18,48.717 10232.1,2366.32 14042.7,4633.93Z" style="fill:#2a8cb4;stroke:#000;stroke-width:0.75px;"/><path d="M40964.1,4181.75c-3385.46,1241.41 -6676.46,1920.41 -8982.06,3293.62c-7564.19,4505.23 -7770.19,11950.3 -7781.37,17977.4c-7.399,3987.29 2930.67,6704.9 5125.67,9107.09c4373.41,4786.22 11392,7853.61 20680.4,5215.23c-8283.48,16797.3 -30441.2,16617.6 -40626.4,7911.45c-6620.66,-5659.23 -9172.66,-15317.8 -8939.07,-21750c28.357,-780.848 215.853,-1540.45 232.43,-2308.2c271.368,-12568.5 12875.4,-23769.8 24455.8,-23626.6c4952.57,61.25 11043.7,1329.05 15834.6,4180.02Z" style="fill:#277694;stroke:#000;stroke-width:0.75px;"/><path d="M29732.6,822.91c-1880.13,1375.82 -4339.38,2536.15 -5927.33,3994.19c-2196.39,2016.71 -4241.82,4184.47 -5886.26,6301.67c-13796.8,17763.1 -7458.66,38080.8 14895.2,41122.2c-18051,3571.49 -30161,-5694.4 -32628.3,-23528.3c-1701.39,-12298.1 8656.68,-24245.7 16516.8,-26995.4c2977.42,-1041.58 11549.2,-2089.05 13029.9,-894.364Z" style="fill:#1a6a83;stroke:#000;stroke-width:0.75px;"/><path d="M8532.61,44052.9c-215.601,72.794 5604.81,-7261.57 13679.9,1680.64c0,0 2334.15,2766.83 5833.66,892.34c-0,-0 -441.181,2244.84 -3001.57,3372.73c-2560.71,1127.74 -6493.55,-1330.58 -7659.07,-3505.72c-1164.87,-2175.64 -3907.32,-4114.74 -8852.89,-2439.99" style="fill:#1a6a83;fill-rule:nonzero;"/></g><g id="surfer-total"><g id="board-legs"><path d="M20736.7,41607.4l-12.647,-0.823c72.806,47.096 2165.45,938.406 2242.18,979.066c2874.03,1205.56 5950.4,2466.7 5792.95,2400.99c466.089,194.276 939.896,369.519 1402.3,571.98c190.855,83.455 484.34,211.739 665.104,337.974c61.249,42.911 115.252,95.995 167.797,150.149c185.484,192.712 -158.215,379.848 -312.32,406.936c-93.97,16.667 -190.455,16.826 -284.985,27.542c-294.242,32.769 -587.199,70.988 -881.333,102.911c-489.804,53.37 -977.787,76.976 -1470.47,44.282c-906.079,-60.21 -1805.46,-255.607 -2682.85,-478.257c-2074.78,-526.425 -4050.69,-1426.93 -6033.76,-2204.15c-724.604,-322.188 -1449.21,-644.311 -2172.17,-970.12c-59.473,-26.826 -117.898,-56.161 -175.049,-87.712c-543.895,-300.485 -1085.83,-604.419 -1627.83,-908.362c-480.949,-319.465 -917.904,-706.582 -1311.48,-1128.13c-261.756,-280.423 -517.423,-560.398 -709.79,-893.666c-56.863,-98.444 -132.089,-238.284 -115.511,-361.306c59.317,-439.396 560.838,-669.266 960.526,-536.53l1498.8,501.39c-0,0 2723.11,1049.44 3179.6,1259.4c369.623,151.887 824.727,338.02 1381.82,567.314c112.859,46.466 340.776,180.114 486.476,218.289l-0.802,-0.962c0.538,-0.592 5.145,0.063 13.449,1.785Z" style="fill:#edaf39;stroke:#b67550;stroke-width:132.92px;stroke-linecap:butt;stroke-miterlimit:2;"/><path d="M27689.4,45344.2l3019.65,1043.19c-95.221,72.999 -196.051,127.839 -528.846,64.172l-9603.78,-3098.97l-7324.57,-4028.15l7510.65,3799.99l6926.91,2219.76Z" style="fill:#b67550;"/><path id="leg-left" d="M17395.1,34368.7c-166.892,160.769 -328.522,326.901 -488.434,494.574c-151.294,158.665 -297.999,321.749 -445.045,484.393c-40.329,44.665 -76.9,91.462 -94.79,150.292c-29.865,97.737 26.369,193.855 84.828,267.396c150.578,189.244 344.859,354.999 465.456,568.426c55.213,97.904 110.677,196.434 152.379,300.805c109.588,273.731 -157.077,483.66 4.042,733.648c106.09,164.597 311.997,216.609 427.699,371.135c66.546,88.846 96.309,200.809 158.075,292.943c116.818,174.226 139.565,152.884 258.193,316.571c163.672,225.869 249.852,501.3 299.559,772.599c9.171,50.263 -4.585,175.495 -25.166,222.287c-13.488,30.586 -26.329,56.101 -39.599,78.257c-157.236,283.244 -321.14,635.738 -353.382,936.672c-5.551,50.166 89.344,42.8 76.859,98.621c-8.56,38.55 -21.026,66.821 -8.811,106.704c17.693,58.025 11.225,92.613 -19.286,153.002c-30.993,61.054 -171.309,105.365 -151.665,169.322c92.347,303.176 -228.346,395.069 -604.217,337.064c-560.77,-86.719 -903.396,-146.356 -1402.27,-397.943c-468.453,-236.27 -129,-621.833 77.933,-837.941c99.883,-104.316 327.976,-106.489 456.542,-196.899c166.4,-117.621 445.644,-201.067 567.399,-342.628c21.644,-25.117 45.67,-119.04 54.834,-123.023c20.375,-81.373 29.174,-183.849 35.224,-282.382c-54.706,-126.184 -146.841,-262.965 -181.82,-349.627c-29.608,-73.357 -62.912,-145.204 -94.824,-217.6c-33.771,-76.466 -63.814,-154.701 -102.37,-228.871c-194.992,-375.295 -641.248,-595.514 -953.84,-838.495c-279.665,-217.3 -470.699,-526.876 -728.687,-766.976c-174.203,-162.067 -191.035,-139.441 -353.231,-310.678c-160.444,-169.427 -258.179,-390.107 -251.779,-625.826c3.691,-133.853 31.604,-159.952 84.217,-279.03c1823.24,-4919.97 4779.31,-4242.74 3095.97,-1056.79Zm-908.653,-9089.51c-4.509,-0.907 6.346,-2.096 0.772,0.165l-0.772,-0.165Z"/><path id="leg-right" d="M20572.6,35148.5c-110.683,643.866 -171.915,1296.3 -113.82,1948.71c11.192,125.447 116.248,175.078 207.101,242.782c173.674,129.492 298.527,204.646 435.141,351.669c415.737,447.174 609.34,1012.25 851.134,1561.61c147.99,336.186 295.532,672.778 447.755,1006.86c0,0 271.608,506.326 312.954,606.753c49.849,121.797 100.355,243.612 150.87,365.362c64.312,132.697 192.888,419.161 173.912,422.881c60.928,148.849 123.062,293.424 207.847,436.534c132.141,222.368 266.406,304.01 422.394,494.869c82.81,101.695 322.622,329.43 331.584,435.1c12.189,147.642 -86.932,380.434 13.099,450.764c267.027,273.3 -212.004,299.239 -391.795,268.799c-265.821,-44.868 -577.525,-133.986 -821.61,-255.891c-499.974,-249.68 -323.798,-449.5 -740.143,-790.046c-204.592,-167.272 -601.735,-389.21 -740.591,-611.247c-83.689,-134.115 -57.804,-203.289 86.198,-260.408c64.656,-25.634 29.812,-227.112 58.344,-306.65c23.51,-65.579 5.771,-219.943 39.746,-217.98c9.678,-248.449 -76.256,-518.563 -82.742,-777.534c-24.145,-38.037 -51.053,-73.586 -81.556,-105.3c-70.028,-72.972 -150.638,-135.006 -223.315,-205.343c-297.341,-287.877 -617.841,-584.792 -861.411,-921.695c-130.662,-180.686 -178.95,-435.682 -346.948,-586.848c-153.126,-137.768 -309.855,-271.637 -469.358,-401.895c-97.219,-79.419 -293.726,-197.756 -385.907,-315.051c-142.292,-181.181 -216.931,-473.505 -255.266,-694.194c-84.663,-488.451 4.311,-982.069 47.344,-1468.81c-30.622,-3121.38 2199.19,-5174.87 1729.04,-673.81Z"/><g id="whitewater"><g><path d="M15233.9,37993.6c322.548,41.214 550.954,336.543 509.74,659.09c-41.215,322.547 -336.543,550.954 -659.091,509.739c-322.547,-41.214 -550.953,-336.543 -509.739,-659.09c41.215,-322.547 336.543,-550.954 659.09,-509.739Z" style="fill:#ebebeb;"/></g><g><path d="M17332,42363.6c462.717,59.125 790.384,482.796 731.258,945.514c-59.125,462.718 -482.796,790.384 -945.513,731.258c-462.718,-59.125 -790.384,-482.795 -731.259,-945.513c59.125,-462.718 482.796,-790.384 945.514,-731.259Z" style="fill:#ebebeb;"/></g><g><path d="M13666.2,39189.9c462.718,59.125 790.384,482.796 731.259,945.514c-59.125,462.718 -482.796,790.384 -945.514,731.258c-462.718,-59.125 -790.384,-482.795 -731.258,-945.513c59.125,-462.718 482.796,-790.384 945.513,-731.259Z" style="fill:#ebebeb;"/></g><g><path d="M15128.7,41081c462.718,59.125 790.384,482.795 731.259,945.513c-59.126,462.718 -482.796,790.384 -945.514,731.259c-462.718,-59.125 -790.384,-482.796 -731.259,-945.514c59.125,-462.718 482.796,-790.384 945.514,-731.258Z" style="fill:#ebebeb;"/></g><g><path d="M14397.5,40135.5c462.718,59.125 790.384,482.796 731.259,945.513c-59.126,462.718 -482.796,790.384 -945.514,731.259c-462.718,-59.125 -790.384,-482.796 -731.259,-945.514c59.125,-462.718 482.796,-790.384 945.514,-731.258Z" style="fill:#ebebeb;"/></g><g><path d="M15860,42026.5c462.718,59.126 790.384,482.796 731.259,945.514c-59.125,462.718 -482.796,790.384 -945.514,731.259c-462.718,-59.126 -790.384,-482.796 -731.259,-945.514c59.126,-462.718 482.796,-790.384 945.514,-731.259Z" style="fill:#ebebeb;"/></g><g><path d="M19438.7,39591.7c322.548,41.215 550.954,336.543 509.74,659.09c-41.215,322.547 -336.543,550.954 -659.091,509.739c-322.547,-41.214 -550.953,-336.542 -509.739,-659.09c41.215,-322.547 336.543,-550.954 659.09,-509.739Z" style="fill:#ebebeb;"/></g><g><path d="M15743.7,38652.8c322.547,41.214 550.954,336.543 509.739,659.09c-41.214,322.547 -336.542,550.954 -659.09,509.739c-322.547,-41.214 -550.953,-336.543 -509.739,-659.09c41.215,-322.547 336.543,-550.954 659.09,-509.739Z" style="fill:#ebebeb;"/></g><g><path d="M19007.2,39069.8c270.529,34.567 460.284,296.468 423.481,584.489c-36.802,288.02 -286.316,493.792 -556.845,459.224c-270.528,-34.567 -460.284,-296.468 -423.481,-584.489c36.803,-288.02 286.317,-493.792 556.845,-459.224Z" style="fill:#ebebeb;"/></g><g><path d="M12544,38194.5c462.718,59.125 790.384,482.796 731.259,945.514c-59.125,462.718 -482.796,790.384 -945.514,731.258c-462.718,-59.125 -790.384,-482.795 -731.259,-945.513c59.126,-462.718 482.796,-790.384 945.514,-731.259Z" style="fill:#ebebeb;"/></g><g><path d="M11732.5,37323.9c356.356,45.534 608.703,371.818 563.168,728.173c-45.534,356.355 -371.818,608.702 -728.173,563.168c-356.355,-45.535 -608.702,-371.818 -563.168,-728.173c45.535,-356.356 371.818,-608.703 728.173,-563.168Z" style="fill:#ebebeb;"/></g><g><path d="M11395.3,36360.2c249.937,31.937 426.926,260.783 394.99,510.72c-31.937,249.938 -260.783,426.927 -510.72,394.99c-249.938,-31.936 -426.927,-260.782 -394.991,-510.72c31.937,-249.938 260.783,-426.927 510.721,-394.99Z" style="fill:#ebebeb;"/></g><g><path d="M10605.4,35338.9c249.938,31.936 426.927,260.782 394.99,510.72c-31.936,249.937 -260.782,426.926 -510.72,394.99c-249.937,-31.937 -426.927,-260.783 -394.99,-510.72c31.937,-249.938 260.783,-426.927 510.72,-394.99Z" style="fill:#ebebeb;"/></g><g><path d="M12259,35072.7c249.938,31.937 426.927,260.783 394.991,510.72c-31.937,249.938 -260.783,426.927 -510.721,394.99c-249.937,-31.936 -426.926,-260.782 -394.99,-510.72c31.937,-249.937 260.783,-426.927 510.72,-394.99Z" style="fill:#ebebeb;"/></g><g><path d="M13429.2,36884.5c178.178,22.767 304.351,185.909 281.584,364.087c-22.767,178.178 -185.909,304.352 -364.087,281.585c-178.178,-22.768 -304.352,-185.91 -281.584,-364.087c22.767,-178.178 185.909,-304.352 364.087,-281.585Z" style="fill:#ebebeb;"/></g><g><path d="M14884.2,39813.8c462.718,59.126 790.384,482.796 731.258,945.514c-59.125,462.718 -482.795,790.384 -945.513,731.259c-462.718,-59.126 -790.384,-482.796 -731.259,-945.514c59.125,-462.718 482.796,-790.384 945.514,-731.259Z" style="fill:#ebebeb;"/></g><g><path d="M12769,39543.5c462.718,59.125 790.384,482.796 731.258,945.514c-59.125,462.718 -482.795,790.384 -945.513,731.259c-462.718,-59.126 -790.384,-482.796 -731.259,-945.514c59.125,-462.718 482.796,-790.384 945.514,-731.259Z" style="fill:#ebebeb;"/></g><g><path d="M18350.8,42986.2c329.021,42.042 562.011,343.297 519.97,672.318c-42.042,329.021 -343.298,562.011 -672.318,519.969c-329.021,-42.041 -562.012,-343.297 -519.97,-672.318c42.042,-329.02 343.297,-562.011 672.318,-519.969Z" style="fill:#ebebeb;"/></g><g><path d="M14628.5,37322.4c322.547,41.215 550.954,336.543 509.739,659.091c-41.214,322.547 -336.543,550.953 -659.09,509.739c-322.547,-41.215 -550.954,-336.543 -509.739,-659.09c41.214,-322.548 336.543,-550.954 659.09,-509.74Z" style="fill:#ebebeb;"/></g><g><path d="M14553.9,37906.7c322.548,41.215 550.954,336.543 509.74,659.09c-41.215,322.548 -336.543,550.954 -659.091,509.74c-322.547,-41.215 -550.953,-336.543 -509.739,-659.091c41.215,-322.547 336.543,-550.953 659.09,-509.739Z" style="fill:#ebebeb;"/></g><g><path d="M18570.6,38587.8c231.409,29.569 395.278,241.45 365.709,472.859c-29.569,231.409 -241.45,395.277 -472.859,365.708c-231.409,-29.569 -395.278,-241.45 -365.709,-472.859c29.57,-231.409 241.451,-395.277 472.859,-365.708Z" style="fill:#ebebeb;"/></g></g></g><g id="surfer-body-upper"><path id="corpo" d="M18958.5,35837c56.698,-641.25 55.945,-639.496 58.418,-1285.03c1.227,-308.993 -25.341,-587.643 -209.467,-845.791c-39.73,-55.687 -156.187,-207.403 -236.059,-259.696c-232.914,-152.457 -351.454,186.805 -456.173,335.168c-171.269,242.601 -393.864,398.234 -605.144,601.828c-1141.81,1211.68 -2205.18,1809.53 -3095.97,1056.79c238.62,-540.105 473.862,-1081.7 714.861,-1620.77c248.671,-556.198 496.684,-1127.41 819.653,-1647.16c72.457,-116.674 150.246,-230.091 231.75,-340.522c175.23,-237.403 365.307,-463.792 538.363,-702.795c21.428,-29.637 38.578,-64.578 43.279,-100.845c4.276,-32.952 -46.819,-67.429 -66.48,-80.579c-295.418,-196.915 -326.436,-198.235 -601.988,-421.353c-186.995,-151.413 -319.16,-359.116 -474.495,-539.056c-162.012,-187.665 -375.443,-321.444 -558.011,-486.298c-69.179,-62.556 -124.384,-139.845 -195.267,-200.438c-306.175,-261.652 -446.935,-346.239 -805.469,-528.027l-2.598,-1.389c-303.798,52.228 -912.855,-1399.16 -849.116,-1461.05c126.785,-123.013 1015.19,-1108.6 1115.87,-1253.78c22.926,-33.08 30.083,-25.492 29.206,-10.87l-29.206,10.87c11.163,43.976 28.044,9.596 29.206,-10.87c-0,-0 2092.21,-840.619 2103.32,-782.246l68.032,59.634l-68.032,-59.634l79.473,19.735l64.978,11.144l0.78,0.1c49.95,7.241 1970.08,896.462 2020.36,900.64c387.134,32.42 483.444,889.917 750.605,1414.51c-2.178,2.563 -3.787,5.33 -4.901,8.359l5.369,-7.374l-0.468,-0.985c7.29,-8.451 6.229,-6.869 0.468,0.985c21.952,43.307 32.23,78.184 28.983,103.075c18.904,28.382 39.407,54.589 46.627,68.924c148.781,296.909 200.48,437.311 374.644,676.214c242.809,333.04 564.63,595.832 829.259,910.121c375.29,445.706 598.85,980.58 661.64,1560.06c49.343,455.131 28.788,896.771 -53.01,1346.64c-53.728,295.347 -223.981,953.999 -263.462,1155.43c-112.952,575.786 -211.384,1154.29 -310.775,1732.53c-446.991,1888.5 -1751.06,1374.6 -1729.04,673.811Z"/><g id="hand-left"><path d="M8371.37,32056.5c-610.445,337.722 -818.034,413.145 -594.178,777.13c82.672,134.316 516.271,188.333 629.281,78.492c35.236,-34.282 6.075,-116.832 182.783,-139.313c440.939,-56.178 423.181,-447.213 579.425,-492.594c-323.386,-14.232 -586.445,-91.585 -797.311,-223.715Z" style="fill:#e9c6af;fill-rule:nonzero;stroke:#000;stroke-width:57.35px;stroke-linecap:butt;stroke-miterlimit:2;"/><path d="M9147.7,32315.2c306.663,-89.126 577.458,-248.643 852.551,-407.149c526.939,-303.661 521.195,-177.009 1400.21,-743.181c272.155,-175.333 573.47,-306.371 775.98,-581.98c194.988,-265.339 491.012,-432.534 708.49,-678.943c66.05,-74.81 147.126,-132.769 225.547,-194.767c1153.41,-911.552 515.983,-491.45 1094.12,-983.746c44.334,-37.744 93.684,-49.08 151.204,-21.446c1868.16,-719.132 1309.4,-1402.29 -375.095,-2068.8c-184.787,137.934 -376.246,263.452 -567.492,391.443c-465,311.18 -669.376,1081.76 -819.95,1262.19c-103.229,123.776 -592.703,796.611 -1050.56,1016.73c-895.715,430.573 -1069.91,933.916 -1494.37,1317.21c-365.755,330.27 -1481.11,1294.06 -1759.66,1448.16c-0,0 67.086,33.944 96.757,48.901c9.117,4.667 18.854,8.092 28.871,10.363c49.403,11.003 204.226,45.52 228.891,51.051c2.25,0.485 4.419,1.093 6.588,1.7l348.673,104.348c4.517,1.37 9.066,2.48 13.657,3.265c28.47,5.223 135.599,24.66 135.599,24.66Z" style="fill-rule:nonzero;"/></g><g id="hand-right"><path d="M24224.5,28994.7c133.586,169.695 422.72,259.63 600.406,378.931c457.594,307.297 1095.88,281.225 468.166,-18.473c-133.857,-64.147 93.674,-66.062 301.44,-1.192c514.63,160.836 408.888,186.901 509.057,168.251c259.291,-48.798 -325.556,-270.274 -504.924,-428.112c245.337,-32.675 641.703,402.18 771.118,206.361c126.083,-190.429 -659.967,-528.133 -793.39,-569.826c126.004,-3.655 233.034,42.925 336.52,101.737c87.48,49.632 457.695,270.31 503.028,179.241c39.013,-77.803 -39.717,-149.375 -116.024,-188.197c-205.933,-105.072 -411.948,-209.493 -641.958,-255.401c-61.212,-12.182 -126.922,-20.182 -177.621,-83.614c41.666,-31.346 82.492,-19.919 122.888,-20.637c279.427,-4.732 571.134,158.145 603.031,63.641c80.216,-239.963 -653.914,-306.614 -895.248,-346.635c-212.212,-35.243 -424.152,-77.785 -645.944,-22.544c-257.965,286.626 -402.588,565.271 -440.545,836.469Z" style="fill:#e9c6af;stroke:#000;stroke-width:57.35px;stroke-linecap:butt;stroke-miterlimit:2;"/><path d="M19361.4,27644.7c35.522,-37.549 86.408,-4.024 129.444,4.581c1469.04,293.691 1512.72,151.469 2106.97,410.023c253.376,110.209 491.795,261.981 773.11,295.218c609.821,72.042 1177.79,268.962 1713.27,564.409c43.814,24.23 98.444,20.705 136.19,61.405c2.368,2.153 4.868,3.265 7.527,3.143c2.658,-0.123 5.466,-1.416 7.074,-3.655l28.139,-34.066l94.46,-118.752l174.359,-397.607l96.917,-143.149l54.879,-124.404c3.354,-31.418 -73.475,-40.31 -297.595,-111.63c-0,-0 -921.166,-295.306 -2235.44,-1067.01c-344.675,-202.349 -745.537,-217.826 -1108.05,-365.369c-918.78,-373.957 -975.02,-292.673 -2093.44,-797.657c-766.476,-346.104 -859.283,-386.109 -2368.63,-537.61c-812.959,2056.01 -396.764,3215.76 2780.82,2362.13Z" style="fill-rule:nonzero;"/></g><g id="face-total"><path d="M18618.7,19703.8l55.753,10.957c-0,-0 -57.114,-6.505 -55.753,-10.957c0,0 106.924,20.534 106.456,22.126c1670.36,192.359 -171.38,4225 -792.218,2890.11c-0,-0 -496.274,1238.99 -750.188,1872.42c-96.82,241.674 -245.958,458.957 -436.697,636.235c-2462.54,2291.54 -4078.14,3432.84 -5616.21,1663.8c-430.612,-495.193 -1238.32,-1508.34 -1671.29,-2489.2c-85.267,-201.908 -139.652,-415.398 -161.411,-633.44c-96.989,-965.941 -202.83,-1938.1 -274.981,-2902.45c-60.412,-806.99 -88.452,-1605.68 -131.08,-2411.72c-2.258,-42.31 -4.516,-84.62 -6.839,-126.939c-4.098,-115.819 134.542,-221.988 134.083,-330.603c-4.646,-1062.43 37.799,-1833.62 680.195,-3334.55c5491.01,-1363.38 8617.82,-414.253 8920.18,5144.22Z" style="fill:#e9c6af;stroke:#000;stroke-width:57.67px;"/><path id="mouth" d="M10506.9,23207.3c248.04,-197.575 494.232,-424.127 780.66,-438.139c1378.06,-67.256 2813.84,237.513 3426.38,544.787c-1293.62,1788.58 -2680.68,2008.43 -4207.04,-106.648Z" style="fill:#513132;stroke:#000;stroke-width:57.67px;"/><path d="M17516.3,19370.3c0,-0 4.156,29.008 -1.422,71.109c-20.264,153.935 26.241,309.134 127.786,426.568c101.545,117.435 248.471,185.829 403.731,187.961l0.065,0.008c13.389,0.191 25.386,-8.385 29.583,-21.063c132.29,-432.913 349.525,-337.696 634.574,-311.448c-78.395,-95.91 -699.967,-231.627 -1194.32,-353.135Z" style="fill:#512b18;stroke:#000;stroke-width:61.44px;"/><path id="cheek-right-small" d="M15551.9,23222.2c25.3,516.611 -52.888,879.794 -210.028,1312.24" style="fill:none;stroke:#000;stroke-width:57.66px;"/><path id="cheek-right" d="M13904.5,21036.6c1548.48,1520.02 1524.04,2633.25 752.061,3988.52" style="fill:none;stroke:#000;stroke-width:57.66px;"/><path id="cheek-left" d="M10965.5,20938.4c-972.944,1278.51 -1031.82,2443.04 -282.319,3743.63" style="fill:none;stroke:#000;stroke-width:57.66px;"/><path id="teeth-top" d="M14418.6,23594.7c-1169.88,-12.783 -2315.92,-48.287 -3398.72,-143.831c-361.056,-308.902 -164.113,-350.139 67.88,-401.962c93.167,-47.098 227.132,-67.046 459.71,-139.475c43.259,-13.303 88.489,-19.284 133.756,-17.794c1034.9,34.98 2043.58,185.802 3032.86,422.22c-177.176,265.038 -253.265,309.824 -295.482,280.842Z" style="fill:#fff;stroke:#000;stroke-width:57.67px;"/><path id="teeth-bottom" d="M11815.6,24464.8c501.24,81.028 1121.93,89.179 1578.17,39.978c-416.469,257.652 -1022.48,318.703 -1578.17,-39.978Z" style="fill:#fff;stroke:#000;stroke-width:61.44px;stroke-linejoin:bevel;"/><path id="eyebrow-right" d="M14010.3,17908.3c0,-0 162.177,-134.216 179.675,-132.574c58.685,5.582 108.435,41.275 195.742,26.597c181.964,-30.531 141.242,-85.685 373.838,-90.52c79.222,-1.572 159.745,104.059 179.441,104.527c71.653,1.822 67.727,-31.055 189.994,2.804c141.088,39.105 278.489,118.439 406.613,186.611c86.92,46.256 276.948,40.013 337.109,103.332c16.074,16.92 146.78,184.331 105.034,224.058c-24.06,22.826 -501.298,-47.999 -545.969,-95.002c-38.73,-40.76 -52.663,-67.714 -114.963,-100.848c-77.886,-41.468 -281.745,-7.127 -371.907,-9.398c-169.383,-4.332 -1026.31,65.82 -1096.66,-8.25c-40.424,-42.496 161.51,-190.528 162.055,-211.337Z" style="fill:#512b18;stroke:#000;stroke-width:87.84px;"/><path id="eyebrow-left" d="M11035,17895.9c0,-0 -156.744,-140.478 -174.313,-139.485c-58.897,3.31 -109.975,36.955 -196.672,18.939c-180.648,-37.684 -137.807,-91.146 -369.986,-105.089c-79.14,-4.76 -163.654,97.688 -183.375,97.414c-71.696,-0.968 -66.453,-33.73 -190.022,-4.657c-142.506,33.525 -282.903,107.425 -413.532,170.548c-88.651,42.785 -269.747,-104.636 -332.296,-43.782c-16.75,16.294 -141.066,172.725 -100.891,214.065c23.136,23.703 481.322,111.255 527.806,65.989c40.29,-39.186 55.295,-65.613 118.811,-96.282c79.494,-38.339 281.826,3.901 371.983,5.18c169.445,2.292 1022.93,105.931 1096.13,34.676c42.026,-40.88 -153.923,-196.674 -153.639,-217.516Z" style="fill:#512b18;stroke:#000;stroke-width:87.84px;"/><path id="glasses" d="M18828.9,19317.3l-2292.18,-1011.75c-1323.89,-384.624 -2371.89,-498.648 -3456.16,-220.678c-346.186,17.344 -751.409,134.246 -1095.25,-15.14c-1015.55,-170.4 -2008.15,-318.243 -3111.12,-158.222c-65.3,784.055 -38.269,1532.73 231.68,2188.04c48.839,116.25 147.538,204.249 268.573,239.47c1529.11,447.187 2306.93,-218.998 2833.47,-1689.67l634.089,8.807c43.582,792.88 178.423,1362.8 553.342,1679.55c183.189,154.825 490.288,233.444 743.2,278.512c402.009,71.652 888.244,6.396 1446.48,-190.59c580.601,-330.634 599.153,-762.289 769.205,-1430.75l1550.02,482.63c1083.72,336.03 1292.88,71.446 924.664,-160.208Z" style="fill:#4d4d4d;"/><path id="glasses1" serif:id="glasses" d="M18828.9,19317.3l-2292.18,-1011.75c-1323.89,-384.624 -2371.89,-498.648 -3456.16,-220.678c-346.186,17.344 -751.409,134.246 -1095.25,-15.14c-1015.55,-170.4 -2008.15,-318.243 -3111.12,-158.222c-65.3,784.055 -38.269,1532.73 231.68,2188.04c48.839,116.25 147.538,204.249 268.573,239.47c1529.11,447.187 2306.93,-218.998 2833.47,-1689.67l634.089,8.807c43.582,792.88 178.423,1362.8 553.342,1679.55c183.189,154.825 490.288,233.444 743.2,278.512c402.009,71.652 888.244,6.396 1446.48,-190.59c580.601,-330.634 599.153,-762.289 769.205,-1430.75l1550.02,482.63c1083.72,336.03 1292.88,71.446 924.664,-160.208Z" style="fill:none;stroke:#000;stroke-width:57.67px;"/><path d="M13328.8,20541.5c165.472,156.459 141.584,271.014 143.371,438.008c1.04,229.204 -68.525,420.975 -297.307,434.225c-312.873,17.24 -573.841,73.487 -817.653,181.613c-304.896,135.272 -509.736,-63.151 -938.959,-182.945c-169.481,-69.756 -273.719,-245.744 -252.37,-427.819c25.68,-232 86.14,-447.135 326.844,-676.238c39.92,-37.846 73.256,-82.083 98.655,-130.902c360.233,-686.244 508.382,-1103.65 557.24,-1413.63" style="fill:none;stroke:#000;stroke-width:57.66px;"/><path d="M9397.75,14361.9c-50.703,-76.845 -53.349,-173.516 4.717,-292.359c77.637,-158.761 -147.984,-400.87 -51.242,-461.981c133.393,-84.243 692.685,-77.99 753.306,-277.842l-13.978,-13.679c13.391,-128.582 223.987,-79.142 176.108,-228.239c-26.995,-83.991 -1335.79,-856.708 -1370.69,-941.379c-150.998,-365.907 986.429,-163.218 1100,-330.733c142.648,-210.447 1199.91,250.911 1439.48,135.173c127.381,-61.49 -773.955,-536.29 -621.368,-573.218c191.861,-46.445 1259.4,422.436 1488.38,412.25c520.564,-23.143 -1311.72,-781.813 -625.29,-642.83c292.657,59.265 483.212,130.591 1320.95,364.164c291.118,81.136 -76.835,-381.142 234.573,-285.057c399.762,123.363 2670.14,987.764 3097.63,1138.19c1118.12,688.359 1935.14,1560.31 2395.01,2619.73c486.577,1120.84 687.134,1535.83 307.839,3081.21l-247.233,1207.32l-719.336,-298.258l-197.41,-117.99l-229.758,-60.808c-0,0 31.412,-416.467 45.839,-609.006c4.799,-63.411 0.527,-127.187 -12.603,-189.387c-67.466,-328.804 -110.35,-619.384 -436.895,-816.246c-179.93,-110.007 -291.215,-304.273 -295.264,-515.096c-17.317,-781.265 -643.851,-1254.58 -1148.39,-1873.92c-66.821,-83.596 -240.32,-149.306 -343.531,-177.691c-955.915,-263.803 -2029.75,-453.279 -3677.31,-183.922c-15.387,2.527 -30.629,5.469 -45.791,8.817c-821.649,180.309 -1688.02,327.418 -2099.61,152.395c-54.575,402.803 -155.091,747.342 -361.764,1148.09l133.622,-1377.7Z" style="fill:#512b18;stroke:#000;stroke-width:57.67px;"/><path d="M16361.2,13677.4c-870.961,-1160.31 -1752.09,-1986.67 -3303.07,-2156.71" style="fill:none;stroke:#000;stroke-width:56.78px;"/><path d="M13276,13279c-147.302,-266.592 -368.902,-501.382 -660.959,-705.994c-312.73,-219.147 -893.015,-443.74 -1362.73,-595.665" style="fill:none;stroke:#000;stroke-width:56.78px;"/><path d="M12195.4,11775.9c1111.56,-53.011 2182.32,862.729 2654.71,1449.81" style="fill:none;stroke:#000;stroke-width:56.78px;"/><path d="M10263.3,13068.8c538.868,176.949 898.943,440.269 1094.32,783.039" style="fill:none;stroke:#000;stroke-width:56.78px;"/><path d="M11691.6,18328c-803.636,-223.334 -1585.21,-370.641 -2422.8,-190.717c-80.975,17.866 -140.49,87.036 -146.098,169.702c-38.359,575.804 -7.54,1125.23 182.672,1613.42c48.934,123.266 152.854,216.425 280.694,251.657c1224.8,341.041 1852.71,-206.275 2279.3,-1397.81c33.976,-313.993 -6.449,-412.319 -173.768,-446.253Z" style="fill:url(#_Linear1);stroke:#000;stroke-width:57.67px;"/><path d="M13142.6,18824.9c35.567,647.225 145.608,1112.36 451.645,1370.95c149.507,126.272 400.164,190.544 606.633,227.299c328.11,58.444 725.006,5.161 1180.63,-155.582c473.926,-269.867 489.083,-622.208 627.843,-1167.81c0,0 53.473,-201.822 96.358,-363.702c29.415,-111.272 -36.469,-225.472 -147.593,-255.528c-987.583,-267.784 -1791.19,-336.242 -2620.81,-123.519c-120.686,98.553 -198.458,241.307 -194.704,467.884Z" style="fill:url(#_Linear2);stroke:#000;stroke-width:57.67px;"/></g></g></g><defs><linearGradient id="_Linear1" x1="0" y1="0" x2="1" y2="0" gradientUnits="userSpaceOnUse" gradientTransform="matrix(2757.67,352.37,-352.37,2757.67,8577.18,18479.6)"><stop offset="0" style="stop-color:#575757;stop-opacity:1"/><stop offset="0.53" style="stop-color:#434343;stop-opacity:1"/><stop offset="1" style="stop-color:#000;stop-opacity:1"/></linearGradient><linearGradient id="_Linear2" x1="0" y1="0" x2="1" y2="0" gradientUnits="userSpaceOnUse" gradientTransform="matrix(6926.92,885.109,-885.109,6926.92,9055.87,18827.6)"><stop offset="0" style="stop-color:#fff;stop-opacity:1"/><stop offset="1" style="stop-color:#000;stop-opacity:1"/></linearGradient></defs></svg>